<?xml version="1.0" encoding="utf-8"?>
<!-- Generator: Adobe Illustrator 15.1.0, SVG Export Plug-In . SVG Version: 6.00 Build 0)  -->
<!DOCTYPE svg PUBLIC "-//W3C//DTD SVG 1.1//EN" "http://www.w3.org/Graphics/SVG/1.1/DTD/svg11.dtd">
<svg version="1.1" id="Layer_1" xmlns="http://www.w3.org/2000/svg" xmlns:xlink="http://www.w3.org/1999/xlink" x="0px" y="0px"
	 width="15px" height="14px" viewBox="0 0 15 14" enable-background="new 0 0 15 14" xml:space="preserve">
<path fill="#EFEFEF" d="M14.5,5.499c0-0.207-0.157-0.337-0.471-0.387L9.807,4.498L7.912,0.669C7.806,0.439,7.668,0.324,7.5,0.324
	S7.194,0.439,7.088,0.669L5.194,4.498L0.971,5.111C0.657,5.162,0.5,5.292,0.5,5.499c0,0.118,0.07,0.252,0.21,0.404l3.062,2.979
	L3.05,13.088c-0.012,0.078-0.017,0.135-0.017,0.168c0,0.117,0.029,0.219,0.088,0.299c0.059,0.082,0.147,0.121,0.265,0.121
	c0.101,0,0.214-0.033,0.336-0.1L7.5,11.59l3.777,1.986c0.117,0.066,0.229,0.1,0.337,0.1c0.112,0,0.196-0.039,0.256-0.121
	c0.06-0.08,0.089-0.182,0.089-0.299c0-0.072-0.003-0.129-0.008-0.168l-0.725-4.207l3.055-2.979C14.428,5.757,14.5,5.622,14.5,5.499z
	"/>
</svg>
