<?xml version="1.0" encoding="utf-8"?>
<!-- Generator: Adobe Illustrator 24.1.0, SVG Export Plug-In . SVG Version: 6.00 Build 0)  -->
<svg version="1.1" id="Layer_1" xmlns="http://www.w3.org/2000/svg" xmlns:xlink="http://www.w3.org/1999/xlink" x="0px" y="0px"
	 viewBox="0 0 406.94 274.09" style="enable-background:new 0 0 406.94 274.09;" xml:space="preserve">
<style type="text/css">
	.st0{fill:#FFFFFF;}
	.st1{fill:#EF2936;}
	.st2{fill:none;stroke:#EF2936;stroke-miterlimit:10;}
	.st3{fill:#E6E7E8;}
	.st4{fill:none;stroke:#EF2936;stroke-width:2;stroke-miterlimit:10;}
	.st5{fill:#D1D3D4;}
	.st6{fill:#A7A9AC;}
	.st7{fill:#808285;}
	.st8{fill:#333132;}
	.st9{fill:none;stroke:#EF2936;stroke-width:3;stroke-miterlimit:10;}
	.st10{fill:#F20823;}
	.st11{fill:none;stroke:#EF2936;stroke-width:3.5;stroke-miterlimit:10;}
	.st12{fill:#F1F2F2;}
	.st13{fill:none;stroke:#EF2936;stroke-width:4;stroke-linecap:round;stroke-linejoin:round;stroke-miterlimit:10;}
	.st14{fill:#808285;stroke:#808285;stroke-width:2;stroke-miterlimit:10;}
	.st15{clip-path:url(#SVGID_2_);}
	.st16{fill:#231F20;}
	.st17{opacity:0.3;}
	.st18{fill:#FFFFFF;stroke:#7F7F7F;stroke-miterlimit:10;}
	.st19{clip-path:url(#SVGID_4_);}
	.st20{clip-path:url(#SVGID_6_);}
	.st21{fill:#7F7F7F;}
	.st22{clip-path:url(#SVGID_8_);}
</style>
<rect x="-3.03" y="-4.17" class="st0" width="413.1" height="281.48"/>
<path class="st1" d="M313.76,239.64c-0.38,0-0.76-0.01-1.14-0.02c-11.99-0.43-22.84-7.56-30.56-20.07
	c-7.76-12.58-7.59-28.83-7.43-43.17c0.02-1.95,0.04-3.87,0.04-5.75V76.88c0-9.17-1.72-31.53-17.66-41.17
	c-13.02-7.88-30.99-5.22-41.8,6.2c-12,12.66-11.91,30.01-11.83,46.78c0.01,1.41,0.01,2.82,0.01,4.22l-0.02,86.43
	c0,1.34,0.01,2.67,0.02,3.99c0.09,12.94,0.17,25.16-7.74,36.14c-9.2,12.77-21.73,19.84-34.3,19.39
	c-11.99-0.43-22.84-7.56-30.56-20.07c-7.76-12.58-7.59-28.83-7.43-43.17c0.02-1.95,0.04-3.87,0.04-5.75V76.12
	c0-9.17-1.72-31.53-17.66-41.17c-13.02-7.88-30.99-5.22-41.8,6.2c-12,12.66-11.91,30.01-11.83,46.78c0.01,1.41,0.01,2.82,0.01,4.22
	l0.01,42.25l-3.5,0l-0.01-42.25c0-1.4-0.01-2.8-0.01-4.2c-0.09-17.46-0.18-35.52,12.78-49.21c11.92-12.58,31.76-15.5,46.15-6.78
	c17.46,10.57,19.34,34.41,19.34,44.17v93.75c0,1.89-0.02,3.82-0.04,5.78c-0.15,13.86-0.32,29.58,6.91,41.3
	c7.09,11.49,16.93,18.03,27.71,18.41c11.41,0.41,22.82-6.13,31.33-17.94c7.24-10.05,7.16-21.71,7.08-34.07
	c-0.01-1.33-0.02-2.67-0.02-4.02c0-1.01,0-1.97,0-2.88l0,0c0-0.02,0-0.32,0-0.97c0-0.07,0-0.14,0-0.2v-12.4c0-0.03,0-0.07,0-0.11
	c0-0.51,0-0.74,0-0.76h0c0-0.91,0-1.86,0-2.87l0.02-66.25c0-1.4-0.01-2.8-0.01-4.2c-0.09-17.46-0.18-35.52,12.78-49.21
	c11.92-12.58,31.76-15.5,46.15-6.78c17.46,10.57,19.34,34.41,19.34,44.17v93.75c0,1.89-0.02,3.82-0.04,5.78
	c-0.15,13.86-0.32,29.58,6.91,41.3c7.09,11.49,16.93,18.03,27.71,18.41c11.41,0.41,22.82-6.13,31.33-17.94
	c7.24-10.04,7.16-21.71,7.08-34.06c-0.01-1.33-0.02-2.67-0.02-4.02v-50.16h3.5v50.16c0,1.34,0.01,2.67,0.02,4
	c0.09,12.94,0.17,25.16-7.74,36.13C338,232.61,325.97,239.64,313.76,239.64z"/>
<g>
	<circle class="st12" cx="200.34" cy="130.21" r="25.73"/>
	<g>
		<path class="st7" d="M200.56,113.15l-15.88,4.53v7.96c0,10.23,6.08,19.44,15.46,23.46l0.42,0.17l0.42-0.17
			c9.38-4.02,15.46-13.24,15.46-23.46v-7.96L200.56,113.15z"/>
		<path class="st0" d="M200.56,117.28l-11.89,3.39v4.86c0,8,4.37,15.3,11.37,19.1l0.52,0.28l0.52-0.28c7-3.8,11.37-11.11,11.37-19.1
			v-4.86L200.56,117.28z"/>
		<g>
			<g>
				<path class="st1" d="M205.23,127.24h-0.48v-0.48c0-2.37-1.92-4.29-4.29-4.29s-4.29,1.92-4.29,4.29v0.48h-0.48
					c-0.26,0-0.48,0.21-0.48,0.48v7.63c0,0.26,0.21,0.48,0.48,0.48h9.54c0.26,0,0.48-0.21,0.48-0.48v-7.63
					C205.71,127.46,205.49,127.24,205.23,127.24z M201.81,131.53c-0.14,0.41-0.46,0.73-0.87,0.87v1.04c0,0.26-0.21,0.48-0.48,0.48
					s-0.48-0.21-0.48-0.48v-1.04c-0.75-0.26-1.14-1.08-0.87-1.83c0.26-0.75,1.08-1.14,1.83-0.87
					C201.68,129.97,202.07,130.79,201.81,131.53z M203.8,127.24h-6.68v-0.48c0-1.84,1.49-3.34,3.34-3.34s3.34,1.49,3.34,3.34V127.24
					z"/>
			</g>
		</g>
	</g>
</g>
<g>
	<circle class="st12" cx="86.23" cy="33.28" r="25.73"/>
	<g>
		<path class="st1" d="M86.16,54c-11.48,0-20.82-9.34-20.82-20.82c0-11.48,9.34-20.82,20.82-20.82s20.82,9.34,20.82,20.82
			C106.98,44.66,97.64,54,86.16,54z M86.16,16.37c-9.27,0-16.82,7.54-16.82,16.82S76.89,50,86.16,50s16.82-7.54,16.82-16.82
			S95.44,16.37,86.16,16.37z"/>
		<path class="st7" d="M94.14,37.62c0.97-0.94,1.08-2.76,0.63-3.87c0.07-0.8,0.1-1.51,0.12-2.08c0.89-0.27,1.55-1.09,1.55-2.07
			c0-1.2-0.97-2.18-2.18-2.18h-0.19c0-3.61-3.66-8.71-8.17-8.71s-8.17,5.1-8.17,8.71h-0.19c-1.2,0-2.18,0.97-2.18,2.18
			c0,0.98,0.65,1.8,1.55,2.07c0.01,0.57,0.04,1.28,0.12,2.08c-0.45,1.11-0.34,2.93,0.63,3.87c0.57,2.27,1.55,4.51,3.27,5.78
			c1.53,1.14,3.33,2.3,4.99,2.3s3.45-1.16,4.99-2.3C92.59,42.13,93.57,39.89,94.14,37.62z M77.97,32.83
			c-0.02-0.39-0.04-0.74-0.05-1.05h15.92c-0.01,0.31-0.02,0.67-0.05,1.05c-0.1-0.01-0.21,0-0.32,0.03c-1.79,0.51-7.6,1.92-7.6,1.92
			s-5.8-1.41-7.6-1.92C78.18,32.83,78.07,32.82,77.97,32.83z M90.18,37.03c-1.89-0.46-2.53-1.15-2.53-1.15s4.35-1.35,5.06-1.35
			C93.42,34.53,92.85,37.67,90.18,37.03z M79.06,34.53c0.7,0,5.06,1.35,5.06,1.35s-0.64,0.7-2.53,1.15
			C78.92,37.67,78.35,34.53,79.06,34.53z M90.26,42.57c-1.4,1.04-3.01,2.09-4.38,2.09c-1.36,0-2.98-1.06-4.38-2.09
			c-1.29-0.95-2.11-2.59-2.65-4.37c2.5,0.53,5.6-0.86,7.03-0.86s4.52,1.39,7.03,0.86C92.38,39.98,91.55,41.62,90.26,42.57z"/>
		<path class="st1" d="M72.56,48.06c-0.51,0-1.02-0.2-1.41-0.59c-0.78-0.78-0.78-2.05,0-2.83l26.37-26.37
			c0.78-0.78,2.05-0.78,2.83,0c0.78,0.78,0.78,2.05,0,2.83L73.98,47.47C73.59,47.86,73.07,48.06,72.56,48.06z"/>
	</g>
</g>
<g>
	<circle class="st12" cx="245.27" cy="28.7" r="25.73"/>
	<g>
		<circle class="st8" cx="234.57" cy="16.01" r="4.14"/>
		<path class="st8" d="M239.85,23.39c-0.75-1.28-2.18-2.11-3.77-2.11h-3.09c-2.22,0-4.1,1.66-4.37,3.88l-0.41,3.58
			c-0.04,0.45,0.26,0.9,0.72,1.02c1.77,0.38,3.65,0.56,5.61,0.56c0.98,0,1.96-0.04,2.9-0.15l0.38-3.09
			C238.04,25.57,238.79,24.29,239.85,23.39z"/>
		<circle class="st8" cx="255.51" cy="16.01" r="4.14"/>
		<path class="st8" d="M255.51,30.28c1.96,0,3.84-0.19,5.61-0.56c0.45-0.11,0.75-0.53,0.72-1.02l-0.41-3.58
			c-0.3-2.18-2.15-3.84-4.37-3.84h-3.09c-1.58,0-2.97,0.83-3.73,2.11c1.09,0.9,1.85,2.18,2,3.69l0.38,3.09
			C253.55,30.24,254.53,30.28,255.51,30.28z"/>
		<path class="st7" d="M246.59,23.35h-3.09c-2.22,0-4.1,1.66-4.37,3.88l-0.41,3.58c-0.04,0.45,0.23,0.9,0.72,1.02
			c1.77,0.38,3.65,0.56,5.61,0.56s3.84-0.19,5.61-0.56c0.45-0.11,0.75-0.53,0.72-1.02l-0.41-3.58
			C250.69,25.01,248.81,23.35,246.59,23.35z"/>
		<circle class="st7" cx="245.04" cy="18.08" r="4.14"/>
		<path class="st1" d="M237.13,36.3l-2.6-0.23c-0.23-0.04-0.45-0.15-0.53-0.38l-0.98-2.37c-0.23-0.53-0.94-0.53-1.17,0l-1.02,2.41
			c-0.08,0.23-0.3,0.38-0.53,0.38l-2.6,0.19c-0.56,0.04-0.79,0.75-0.38,1.09l1.96,1.69c0.19,0.15,0.26,0.38,0.19,0.64l-0.6,2.52
			c-0.11,0.56,0.45,0.98,0.94,0.68l2.22-1.36c0.19-0.11,0.45-0.11,0.64,0l2.22,1.36c0.49,0.3,1.09-0.15,0.94-0.68l-0.53-2.52
			c-0.04-0.23,0.04-0.49,0.19-0.64l1.96-1.69C237.92,37.06,237.7,36.34,237.13,36.3z"/>
		<path class="st1" d="M249.75,38.26l-2.6-0.23c-0.23-0.04-0.45-0.15-0.53-0.38l-1.02-2.41c-0.23-0.53-0.94-0.53-1.17,0l-1.02,2.41
			c-0.08,0.23-0.3,0.38-0.53,0.38l-2.6,0.23c-0.56,0.04-0.79,0.75-0.38,1.09l1.96,1.69c0.19,0.15,0.26,0.38,0.19,0.64l-0.6,2.52
			c-0.11,0.56,0.45,0.98,0.94,0.68l2.22-1.36c0.19-0.11,0.45-0.11,0.64,0l2.22,1.36c0.49,0.3,1.09-0.15,0.94-0.68l-0.6-2.52
			c-0.04-0.23,0.04-0.49,0.19-0.64l1.96-1.69C250.54,39.01,250.31,38.3,249.75,38.26z"/>
		<path class="st1" d="M262.7,37.43c0.41-0.38,0.19-1.05-0.38-1.09l-2.6-0.23c-0.23-0.04-0.45-0.15-0.53-0.38l-0.98-2.41
			c-0.23-0.53-0.94-0.53-1.17,0l-1.02,2.41c-0.08,0.23-0.3,0.38-0.53,0.38l-2.56,0.19c-0.56,0.04-0.79,0.75-0.38,1.09l1.96,1.69
			c0.19,0.15,0.26,0.38,0.19,0.64l-0.6,2.52c-0.11,0.56,0.45,0.98,0.94,0.68l2.22-1.36c0.19-0.11,0.45-0.11,0.64,0l2.22,1.36
			c0.49,0.3,1.09-0.15,0.94-0.68l-0.53-2.52c-0.04-0.23,0.04-0.49,0.19-0.64L262.7,37.43z"/>
	</g>
</g>
<g>
	<circle class="st12" cx="159.66" cy="229.45" r="25.73"/>
	<g>
		<g>
			<path class="st7" d="M162.4,233.67l1.47-1.47l3.2,3.2l-1.47,1.47L162.4,233.67z"/>
			<path class="st7" d="M165.6,238.28l-4.61-4.61l2.88-2.88l4.61,4.61L165.6,238.28z M163.81,233.67l1.79,1.79l0.05-0.05l-1.79-1.79
				L163.81,233.67z"/>
		</g>
		<g>
			<circle class="st7" cx="154.27" cy="224.07" r="13.5"/>
			<path class="st7" d="M154.27,238.56c-7.99,0-14.5-6.5-14.5-14.5s6.5-14.5,14.5-14.5s14.5,6.5,14.5,14.5
				S162.26,238.56,154.27,238.56z M154.27,211.57c-6.89,0-12.5,5.61-12.5,12.5c0,6.89,5.61,12.5,12.5,12.5s12.5-5.61,12.5-12.5
				C166.77,217.17,161.16,211.57,154.27,211.57z"/>
		</g>
		<circle class="st0" cx="154.27" cy="224.07" r="11.42"/>
		<path class="st0" d="M154.27,212.64c-0.35,0-0.7,0.02-1.04,0.05c5.81,0.53,10.38,5.43,10.38,11.37c0,5.95-4.57,10.85-10.38,11.37
			c0.34,0.03,0.69,0.05,1.04,0.05c6.3,0,11.42-5.12,11.42-11.42S160.57,212.64,154.27,212.64L154.27,212.64z"/>
		<g>
			<path class="st8" d="M152.37,224.31h-4.15v-6.09c0-0.15,0.12-0.28,0.28-0.28h3.6c0.15,0,0.28,0.12,0.28,0.28V224.31z"/>
			<path class="st7" d="M160.67,224.31h-4.15v-3.46c0-0.15,0.12-0.28,0.28-0.28h3.6c0.15,0,0.28,0.12,0.28,0.28V224.31z"/>
			<path class="st1" d="M156.52,224.31h-4.15v-8.72c0-0.15,0.12-0.28,0.28-0.28h3.6c0.15,0,0.28,0.12,0.28,0.28V224.31z"/>
		</g>
		<path class="st8" d="M161.89,223.8H147c-0.28,0-0.5,0.23-0.5,0.5c0,0.28,0.23,0.5,0.5,0.5h14.89c0.28,0,0.5-0.23,0.5-0.5
			C162.39,224.03,162.16,223.8,161.89,223.8z"/>
		<path class="st1" d="M160.26,229.24h-2.45l-1.11-2.85c-0.08-0.19-0.27-0.32-0.47-0.32c-0.21,0-0.4,0.13-0.47,0.33l-1.53,4.13
			l-1.07-3.05c-0.07-0.19-0.24-0.32-0.43-0.33c-0.2-0.02-0.39,0.08-0.48,0.26l-1.02,1.83h-2.45c-0.28,0-0.5,0.23-0.5,0.5
			c0,0.28,0.23,0.5,0.5,0.5h2.74c0.18,0,0.35-0.1,0.44-0.26l0.62-1.12l1.17,3.31c0.07,0.2,0.26,0.33,0.47,0.34h0
			c0.21,0,0.4-0.13,0.47-0.33l1.56-4.2l0.76,1.94c0.08,0.19,0.26,0.32,0.47,0.32h2.8c0.28,0,0.5-0.23,0.5-0.5
			C160.76,229.47,160.53,229.24,160.26,229.24z"/>
		<path class="st8" d="M172.76,246.27l-8.4-8.4c-0.2-0.2-0.2-0.51,0-0.71l2.84-2.84c0.2-0.2,0.51-0.2,0.71,0l8.4,8.4
			c0.2,0.2,0.2,0.51,0,0.71l-2.84,2.84C173.27,246.46,172.95,246.46,172.76,246.27z"/>
		
			<rect x="166.07" y="237.29" transform="matrix(0.7071 -0.7071 0.7071 0.7071 -119.3037 189.0718)" class="st1" width="5.02" height="2.51"/>
	</g>
</g>
<circle class="st12" cx="352.93" cy="102.9" r="45.04"/>
<circle class="st12" cx="50.38" cy="149.56" r="45.04"/>
<g>
	<defs>
		<circle id="SVGID_5_" cx="50.38" cy="149.52" r="45.04"/>
	</defs>
	<clipPath id="SVGID_2_">
		<use xlink:href="#SVGID_5_"  style="overflow:visible;"/>
	</clipPath>
	<g class="st15">
		<path class="st1" d="M126.42,150.25c-0.7,0-1.31,0.45-1.69,1.08c-0.52,0.85-1.23,0.62-1.83,1.23c-0.8,0.83-1.43,1.97-1.84,3.04
			c0.01-0.03-0.73,0.15-0.8,0.18c-0.71,0.29-0.85,0.87-1.07,1.54c-0.45,1.38-1.25,4.2-1.2,5.66c0.26,7.3-2.93,11.17-2.83,11
			c0.75-1.3-1.61,2.41-2.53,3.59c-0.48,0.62-1.32,1.87-2.1,2.03c0.54-0.11,2.81,4.11,5.17,5.54c1.06,0.64,2.43,0.19,2.89-0.96
			c0.73-1.84,2.16-3.74,3.19-5.45c1.21-2,2.73-3.78,4.49-5.32c1.62-1.42,3.28-2.69,4.43-4.54c0.52-0.84,0.96-2.19,1.19-3.14
			c0.13-0.55,0.45-1.04,0.65-1.57c0.15-0.4,0.54-1.96,0.38-2.16c-0.49-0.6-1.37-0.34-1.68,0.05c-0.79,1.02-1.09,2.44-1.94,3.46
			c-0.23,0.27-1.11,1.27-1.57,1.01c-0.52-0.3,0.07-2.64,0.21-3.13c0.63-2.34,0.77-4.77,1.22-7.14c0.14-1.42,1.32-3.65-0.07-4.3
			c-0.78-0.37-1.21-1.23-2.01-1.56C126.86,150.29,126.63,150.25,126.42,150.25z"/>
		<path class="st8" d="M113.9,172.86c-2.53,3.34-5.06,6.68-7.59,10.01c-1.39,1.84-6.59,8.07-7.14,8.79c-1.44,1.9-1.88,1.9-3.87-0.52
			c-2.52-3.06-4.31-6.21-6.49-9.54c-2.24-3.43-4.55-6.82-7.07-10.03c-2.95-3.77-6.84-8.86-11.67-9.96
			c-9.89-2.26-20.01-4.05-34.96-2.26c-13.12,1.58-20.29,17.61-22.99,23.64c-0.35,0.81-0.63,1.47-0.79,1.74
			c-1.08,0.85-11.82-6.43-21.17-13.66c-0.1-0.08-0.22-0.1-0.34-0.07c-0.11,0.03-0.21,0.12-0.25,0.23L-14.87,182
			c-0.06,0.15-0.03,0.32,0.07,0.44c0.93,1,22.62,24.84,26.05,26.52c3.43,1.67,16.7-19.27,19.68-24.05l38.1,3.44
			c0.18,0.02,0.86,1.72,0.95,1.91c0.63,1.22,2.11,0.48,2.78,1.67c2.06,3.63,7.58,8.89,10.16,12.15c1.23,1.55,3.91,4.2,6.12,6.14
			c2.13,1.87,4.89,4.95,7.84,4.47c1.04-0.17,1.99-0.7,2.87-1.3c1.98-1.36,3.67-3.12,5.23-4.97c1.42-1.69,3.04-3.45,4.34-5.23
			c3.58-4.88,7.15-9.55,10.72-14.43c1.22-1.67,2.44-3.34,3.66-5.01L113.9,172.86z"/>
		<g>
			<path class="st6" d="M76.13,242.12c-0.48-12.71-0.88-23.26-0.88-23.76c0-3.7-1.24-38.47-1.24-38.47l-44.87-0.32
				c0,0-3.93,28.91-4.82,33.54c-0.12,0.59-1.16,11.44-2.39,24.39C30.03,241.06,46.6,245.41,76.13,242.12z M64.83,230.99
				c0.18-0.01,0.34,0.1,0.41,0.26c1.03,4.32,4.4,7.7,8.73,8.73c0.23,0.06,0.37,0.28,0.32,0.51c-0.05,0.19-0.22,0.32-0.41,0.32h-0.09
				c-4.66-1.08-8.3-4.72-9.37-9.38C64.41,231.2,64.59,231,64.83,230.99z"/>
			<path class="st6" d="M65.24,231.26c-0.07-0.17-0.23-0.27-0.41-0.26c-0.24,0.01-0.42,0.21-0.41,0.45c1.07,4.66,4.71,8.3,9.37,9.38
				h0.09c0.2,0,0.37-0.13,0.41-0.32c0.05-0.23-0.09-0.45-0.32-0.51"/>
		</g>
		<path class="st8" d="M63.87,145.85c-0.19-0.39,1.65-4.72,1.05-11.52c-0.6-6.81-13.17-9.24-17.69-8.65s-9.06,5.21-9.97,9.73
			s1.05,12.64,1.05,12.64L63.87,145.85z"/>
		<path class="st8" d="M38.3,148.43c-0.2,0-0.37-0.13-0.41-0.32c-0.08-0.34-1.98-8.23-1.05-12.82c1-4.87,5.76-9.48,10.32-10.07
			c3.13-0.4,10.92,0.63,15.25,4.12c1.62,1.16,2.68,2.96,2.91,4.94c0.33,3.56,0.03,7.15-0.86,10.61c-0.09,0.37-0.18,0.75-0.19,0.87
			c0.02,0.11,0.01,0.22-0.04,0.32c-0.07,0.12-0.2,0.2-0.34,0.21l-25.57,2.17L38.3,148.43z M48.71,125.99
			c-0.48,0-0.96,0.03-1.43,0.08c-4.2,0.54-8.68,4.94-9.6,9.4c-0.82,3.84,0.6,10.49,0.95,12.09l24.83-2.11
			c0-0.19,0.09-0.44,0.18-0.82c0.87-3.37,1.15-6.87,0.82-10.33c-0.22-1.75-1.17-3.32-2.6-4.34
			C58.3,127.11,52.22,125.99,48.71,125.99z"/>
		<path class="st1" d="M60.09,145.44c0.7-4.35,7.92-5.42,7.56-0.3c-0.05,1.78-0.73,3.49-1.92,4.82c-1.24,1.32-3.15,1.77-4.85,1.14"
			/>
		<path class="st1" d="M42.06,145.44c-0.7-4.35-7.92-5.42-7.56-0.3c0.05,1.78,0.73,3.49,1.92,4.82c1.24,1.32,3.15,1.77,4.85,1.14"/>
		<path class="st1" d="M42.72,167.18c0,0,1.95,4.26,7.66,4.26c3.23,0.09,6.27-1.53,8.01-4.26l-0.24-3.05l-0.56-7.07l-0.54-6.59
			H44.05l-0.44,5.4l-0.13,1.75L42.72,167.18z"/>
		<g>
			<path class="st1" d="M50.38,171.85c-5.91,0-7.96-4.32-8.04-4.5c-0.03-0.07-0.04-0.14-0.04-0.21l1.33-16.71
				c0.01-0.22,0.2-0.4,0.42-0.4h13.01c0.22,0,0.41,0.17,0.43,0.4l1.33,16.71c0.01,0.08-0.01,0.17-0.05,0.24
				C56.96,170.25,53.77,171.96,50.38,171.85z M43.15,167.09c0.33,0.63,2.28,3.92,7.23,3.92c3.03,0.09,5.9-1.39,7.57-3.93
				l-1.28-16.23H44.44L43.15,167.09z"/>
		</g>
		<path class="st1" d="M42.61,155.36c0.14,0.8,0.43,1.57,0.87,2.26c1.09,1.59,2.56,2.87,4.27,3.75c2.81,1.55,7,3.29,10.4,2.77
			l-0.56-7.07c-2.49,0.31-5.01,0.33-7.5,0.05c-2.21-0.08-4.4-0.5-6.48-1.25C43.27,155.7,42.93,155.54,42.61,155.36z"/>
		<g>
			<path class="st1" d="M43.23,156.13c0.15,0.44,0.35,0.87,0.6,1.26c1.05,1.53,2.46,2.77,4.12,3.61c2.18,1.21,6.27,3.13,9.75,2.78
				l-0.49-6.25c-2.38,0.26-4.78,0.26-7.16,0c-2.25-0.09-4.47-0.52-6.59-1.28L43.23,156.13z"/>
		</g>
		<path class="st1" d="M50.17,158.73h1.16c5.51,0,9.98-4.47,9.98-9.98v-15.78H40.21v15.78C40.21,154.26,44.67,158.73,50.17,158.73z"
			/>
		<g>
			<path class="st1" d="M61.31,132.97v15.78c0,5.51-4.47,9.98-9.98,9.98h-1.16c-5.51,0-9.97-4.47-9.97-9.98v-15.78H61.31"/>
		</g>
		<path class="st16" d="M53.61,148.5c0.48,0,0.97-0.02,1.45-0.08c0.25-0.03,0.47-0.18,0.59-0.4c0.76-1.26-1.03-6.16-1.6-7.63
			c-0.08-0.23-0.34-0.34-0.56-0.26c-0.23,0.08-0.34,0.34-0.26,0.56l0,0c1.25,3.29,2.03,6.48,1.65,6.9c-0.91,0.09-1.84,0.09-2.75,0
			c-0.23-0.03-0.44,0.12-0.48,0.35c0,0,0,0.01,0,0.01c-0.02,0.23,0.14,0.44,0.37,0.48C52.55,148.48,53.08,148.51,53.61,148.5z"/>
		<path class="st17" d="M40.83,152.22c0.07,0,5.42-1.22,7.84-1.87c1.86-0.5,4.81-1.77,8.35,0.49c3.54,2.26,3.86,0.26,3.86,0.26
			l0.11,0.16c-0.81,3.14-3.1,5.69-6.13,6.83c-1.54,0.31-3.11,0.53-4.68,0.65C46,158.73,42.28,156.13,40.83,152.22z"/>
		<path class="st6" d="M70.94,189.92c-0.62-1.23-0.54-28.41-0.54-28.98c0-0.57-6.3-0.82-6.3-0.82l-2.79,31.69L70.94,189.92z"/>
		<path class="st6" d="M42.06,189.31c-0.5-1.85-1.99-31.22-1.99-31.22l-6.47,0.64l-2.24,30.57H42.06z"/>
		<path class="st7" d="M50.04,215.65c-2.36,0.01-4.68-0.53-6.8-1.57c-7.41-3.66-11.12-12.85-10.14-25.2
			c0.02-0.22,0.21-0.39,0.43-0.39l0,0l32.93,0.52c0.19,0.01,0.36,0.14,0.41,0.32c0,0.14,3.29,13.71-6.26,22.28
			C57.71,214.21,53.94,215.65,50.04,215.65z M33.92,189.35c-0.82,11.78,2.69,20.51,9.71,23.97c5.46,2.63,11.96,1.7,16.46-2.35
			c8.34-7.5,6.48-19.07,6.07-21.12L33.92,189.35z"/>
		<path class="st6" d="M63.36,228.48c-15.8,0-37.95-3.79-38.23-3.84c-0.22-0.09-0.32-0.34-0.23-0.56c0.06-0.15,0.21-0.26,0.38-0.26
			c0.34,0.07,34.08,5.83,47.75,3.1c0.23-0.04,0.45,0.11,0.5,0.34c0.04,0.23-0.1,0.45-0.33,0.49c0,0,0,0-0.01,0
			C69.95,228.3,66.65,228.55,63.36,228.48z"/>
		
			<ellipse transform="matrix(0.9978 -0.0659 0.0659 0.9978 -9.161 4.1221)" class="st16" cx="57.88" cy="140.87" rx="0.6" ry="1.37"/>
		
			<ellipse transform="matrix(0.9978 -0.0659 0.0659 0.9978 -9.2215 3.4933)" class="st16" cx="48.32" cy="141.47" rx="0.6" ry="1.37"/>
		<path class="st7" d="M33.66,188.86l32.46,0.57c0,0,4.2,11.69-5.33,21.34c0,0-5.79,7.38-16.8,3.18c0,0-6.58-2.61-8.97-10.22
			C35.02,203.73,32.18,197.49,33.66,188.86z"/>
		<g>
			<path class="st12" d="M54.98,152.89l-6.71-1.53c0,0-2.34,3.57,1.9,5.52C50.17,156.88,53.71,157.14,54.98,152.89z"/>
			<path class="st8" d="M48.51,151.95c-0.55,1.09-0.5,2.26,0.13,3.33c0.34,0.51,1,0.91,1.82,1.09c0.42,0.1,0.88,0.07,1.26-0.08
				c1.4-0.5,2.44-2.25,2.84-3.15L48.51,151.95z M47.79,155.52c-0.78-1.3-0.79-2.74-0.02-4.05c0.09-0.15,0.34-0.22,0.57-0.18
				l6.93,1.36c0.24,0.04,0.38,0.2,0.32,0.36c-0.05,0.13-1.18,3.01-3.42,3.81c-0.61,0.23-1.34,0.27-2.01,0.12
				c-0.23-0.05-0.45-0.11-0.66-0.19C48.74,156.47,48.14,156.04,47.79,155.52z"/>
		</g>
		<path class="st16" d="M120.43,155.99c-0.48,2.1-0.77,4.13-0.77,6.28c0,0.56,0.86,0.56,0.87,0c0.01-2.07,0.28-4.03,0.74-6.05
			C121.39,155.68,120.56,155.44,120.43,155.99L120.43,155.99z"/>
		<path class="st16" d="M124.33,151.88c-1.06,3.62-2.18,7.12-2.29,10.94c-0.02,0.56,0.85,0.56,0.87,0c0.1-3.75,1.22-7.15,2.26-10.71
			C125.32,151.57,124.48,151.34,124.33,151.88L124.33,151.88z"/>
		<path class="st16" d="M127.36,151.77c-1.18,3.68-1.92,7.87-2.07,11.74c0.29,0,0.58,0,0.87,0c0-0.12,0-0.24,0-0.37
			c0-0.56-0.87-0.56-0.87,0c0,0.12,0,0.24,0,0.37c0,0.56,0.84,0.56,0.87,0c0.15-3.79,0.88-7.9,2.04-11.51
			C128.36,151.47,127.53,151.24,127.36,151.77L127.36,151.77z"/>
		<g>
			<g>
				<path class="st0" d="M62.18,124c0,0,2.57,2.53,6.9,0c4.33-2.53,3.44-7.54,2.18-9.33c-1.26-1.79-5.02-5.25-8.5-4.36
					c-1.66,0.3-3.24,0.92-4.67,1.81c0,0-2.85-1.75-9.26-1.87s-8.46,3.19-8.46,3.19s-5.1-2.05-8.28,0.88
					c-2.82,2.44-3.26,6.65-0.99,9.61c1.99,2.34,10.09,1.74,10.09,1.74L62.18,124z"/>
				<path class="st21" d="M38.85,126.26c-2.65,0-6.7-0.3-8.14-2c-2.44-3.19-1.97-7.71,1.05-10.31c2.89-2.67,7.16-1.53,8.43-1.1
					c0.73-0.89,3.18-3.2,8.64-3.1c5.44,0.1,8.37,1.36,9.24,1.8c1.42-0.84,2.97-1.42,4.6-1.72c3.68-0.95,7.66,2.66,9,4.56
					c0.8,1.13,1.44,3.37,0.96,5.61c-0.41,1.88-1.55,3.42-3.3,4.44c-4,2.34-6.62,0.64-7.32,0.08l-20.79,1.66
					C40.96,126.2,40.04,126.26,38.85,126.26z M36.55,113.25c-1.39,0-2.92,0.33-4.13,1.44c-2.63,2.27-3.04,6.19-0.93,8.94
					c1.48,1.74,7.47,1.71,9.66,1.55l21.22-1.7l0.16,0.16c0.11,0.11,2.39,2.21,6.3-0.07c1.52-0.89,2.47-2.16,2.82-3.79
					c0.4-1.85-0.1-3.83-0.8-4.82c-1.16-1.65-4.79-4.98-7.97-4.16c-1.64,0.3-3.15,0.89-4.54,1.75l-0.26,0.16l-0.26-0.16
					c-0.03-0.02-2.85-1.69-9.01-1.8c-6.03-0.11-8,2.92-8.02,2.96l-0.22,0.36l-0.39-0.16C40.15,113.9,38.5,113.25,36.55,113.25z"/>
			</g>
			<g>
				<path class="st0" d="M63.75,121.69c0,0,1.31,8.6,1.22,10.77c-3.3-1.97-7.05-3.06-10.9-3.15c-5.98,0-14.54,3.56-17.02,4.89
					l1.77-13.38c0,0,4.13-2.28,13.08-1.38S63.75,121.69,63.75,121.69z"/>
				<path class="st21" d="M36.43,135.1l1.93-14.6l0.22-0.12c0.17-0.1,4.37-2.34,13.37-1.44c8.93,0.89,11.9,2.24,12.02,2.3l0.24,0.11
					l0.04,0.26c0.05,0.35,1.31,8.67,1.23,10.86l-0.03,0.84l-0.72-0.43c-3.22-1.93-6.9-2.99-10.65-3.08c-5.9,0-14.36,3.54-16.77,4.83
					L36.43,135.1z M39.28,121.15l-1.61,12.18c3.23-1.54,10.87-4.52,16.4-4.52c3.64,0.08,7.2,1.04,10.38,2.78
					c-0.14-2.59-0.96-8.22-1.16-9.54c-0.86-0.32-4.11-1.38-11.45-2.11C44.31,119.18,40.23,120.73,39.28,121.15z"/>
			</g>
		</g>
	</g>
</g>
<g>
	<path class="st8" d="M12.29,208.55v-7.23h2.5c0.47,0,0.88,0.04,1.21,0.14c0.33,0.09,0.61,0.22,0.82,0.39
		c0.22,0.17,0.37,0.37,0.47,0.6c0.1,0.24,0.15,0.5,0.15,0.8c0,0.17-0.03,0.33-0.08,0.49s-0.13,0.3-0.23,0.44
		c-0.11,0.13-0.24,0.26-0.4,0.37c-0.16,0.11-0.35,0.2-0.58,0.28c0.99,0.22,1.49,0.76,1.49,1.61c0,0.31-0.06,0.59-0.18,0.85
		s-0.29,0.48-0.51,0.67c-0.22,0.19-0.5,0.34-0.82,0.44c-0.33,0.11-0.7,0.16-1.12,0.16H12.29z M13.63,204.45h1.08
		c0.46,0,0.8-0.08,1.04-0.25c0.24-0.17,0.35-0.43,0.35-0.8c0-0.38-0.11-0.65-0.32-0.8c-0.21-0.16-0.55-0.24-1-0.24h-1.15V204.45z
		 M13.63,205.38v2.12H15c0.25,0,0.46-0.03,0.63-0.09c0.17-0.06,0.3-0.14,0.4-0.24c0.1-0.1,0.18-0.22,0.22-0.35
		c0.05-0.13,0.07-0.28,0.07-0.43c0-0.16-0.03-0.3-0.08-0.42s-0.13-0.23-0.24-0.32c-0.11-0.09-0.24-0.16-0.41-0.2
		c-0.17-0.05-0.37-0.07-0.6-0.07H13.63z"/>
	<path class="st8" d="M20.39,205.72v2.82h-1.35v-7.23h2.21c0.49,0,0.92,0.05,1.27,0.15s0.64,0.24,0.87,0.43
		c0.22,0.18,0.39,0.4,0.49,0.66s0.16,0.54,0.16,0.84c0,0.24-0.04,0.47-0.11,0.69c-0.07,0.22-0.18,0.41-0.31,0.59
		c-0.13,0.18-0.3,0.33-0.5,0.46c-0.2,0.13-0.42,0.24-0.68,0.32c0.17,0.1,0.32,0.23,0.44,0.41l1.81,2.67h-1.21
		c-0.12,0-0.22-0.02-0.3-0.07c-0.08-0.05-0.15-0.11-0.21-0.2l-1.52-2.31c-0.06-0.09-0.12-0.15-0.19-0.19
		c-0.07-0.04-0.17-0.05-0.3-0.05H20.39z M20.39,204.76h0.84c0.25,0,0.47-0.03,0.66-0.09c0.19-0.06,0.34-0.15,0.46-0.26
		c0.12-0.11,0.21-0.24,0.27-0.4c0.06-0.15,0.09-0.32,0.09-0.51c0-0.37-0.12-0.65-0.36-0.84c-0.24-0.2-0.61-0.29-1.11-0.29h-0.86
		V204.76z"/>
	<path class="st8" d="M32.11,208.55h-1.04c-0.12,0-0.21-0.03-0.29-0.09c-0.07-0.06-0.13-0.13-0.16-0.22l-0.54-1.47h-3l-0.54,1.47
		c-0.03,0.08-0.08,0.15-0.16,0.21c-0.08,0.06-0.17,0.09-0.29,0.09h-1.04l2.84-7.23h1.38L32.11,208.55z M27.43,205.82h2.31
		l-0.88-2.41c-0.04-0.11-0.08-0.23-0.13-0.38c-0.05-0.15-0.1-0.3-0.14-0.47c-0.05,0.17-0.09,0.33-0.14,0.47
		c-0.04,0.15-0.09,0.28-0.13,0.39L27.43,205.82z"/>
	<path class="st8" d="M33.91,201.33c0.04,0.01,0.08,0.02,0.11,0.03c0.03,0.02,0.06,0.04,0.09,0.07s0.06,0.07,0.1,0.11l3.79,4.83
		c-0.01-0.12-0.02-0.23-0.03-0.34s-0.01-0.22-0.01-0.31v-4.4h1.19v7.23h-0.7c-0.11,0-0.2-0.02-0.26-0.05
		c-0.07-0.03-0.14-0.09-0.21-0.18l-3.78-4.82c0.01,0.11,0.02,0.21,0.02,0.32s0.01,0.2,0.01,0.29v4.44h-1.19v-7.23h0.71
		C33.82,201.32,33.87,201.32,33.91,201.33z"/>
	<path class="st8" d="M47.23,204.93c0,0.53-0.09,1.02-0.27,1.46c-0.18,0.44-0.42,0.83-0.75,1.15c-0.32,0.32-0.7,0.57-1.15,0.74
		c-0.45,0.18-0.95,0.27-1.5,0.27h-2.76v-7.23h2.76c0.55,0,1.04,0.09,1.5,0.27c0.45,0.18,0.83,0.43,1.15,0.74
		c0.32,0.32,0.57,0.7,0.75,1.14S47.23,204.4,47.23,204.93z M45.86,204.93c0-0.4-0.05-0.75-0.16-1.07c-0.11-0.32-0.26-0.58-0.46-0.8
		c-0.2-0.22-0.44-0.39-0.72-0.5c-0.28-0.12-0.6-0.18-0.95-0.18h-1.41v5.09h1.41c0.35,0,0.67-0.06,0.95-0.18
		c0.28-0.12,0.52-0.28,0.72-0.5c0.2-0.22,0.35-0.48,0.46-0.8C45.81,205.69,45.86,205.33,45.86,204.93z"/>
	<path class="st8" d="M57.55,204.93c0,0.53-0.09,1.02-0.27,1.47c-0.18,0.45-0.42,0.84-0.74,1.17c-0.32,0.33-0.71,0.59-1.16,0.77
		c-0.45,0.19-0.95,0.28-1.5,0.28s-1.05-0.09-1.5-0.28c-0.45-0.18-0.84-0.44-1.16-0.77c-0.32-0.33-0.57-0.72-0.75-1.17
		c-0.18-0.45-0.27-0.94-0.27-1.47s0.09-1.02,0.27-1.47c0.18-0.45,0.43-0.84,0.75-1.17c0.32-0.33,0.71-0.59,1.16-0.77
		c0.45-0.19,0.95-0.28,1.5-0.28s1.04,0.09,1.5,0.28c0.45,0.19,0.83,0.44,1.16,0.77c0.32,0.33,0.57,0.72,0.74,1.17
		C57.47,203.91,57.55,204.4,57.55,204.93z M56.17,204.93c0-0.4-0.05-0.75-0.16-1.07c-0.1-0.32-0.26-0.58-0.45-0.8
		c-0.2-0.22-0.44-0.39-0.72-0.51s-0.6-0.18-0.95-0.18s-0.67,0.06-0.96,0.18s-0.52,0.29-0.72,0.51c-0.2,0.22-0.35,0.49-0.46,0.8
		c-0.11,0.31-0.16,0.67-0.16,1.07c0,0.4,0.05,0.75,0.16,1.07c0.11,0.31,0.26,0.58,0.46,0.8c0.2,0.22,0.44,0.39,0.72,0.5
		s0.6,0.18,0.96,0.18s0.67-0.06,0.95-0.18s0.52-0.28,0.72-0.5c0.2-0.22,0.35-0.48,0.45-0.8C56.12,205.69,56.17,205.33,56.17,204.93z
		"/>
	<path class="st8" d="M58.14,201.32h1.13c0.12,0,0.21,0.03,0.29,0.08c0.08,0.05,0.13,0.13,0.16,0.22l1.23,4.33
		c0.03,0.11,0.06,0.22,0.08,0.35c0.02,0.12,0.05,0.26,0.07,0.4c0.03-0.14,0.06-0.27,0.09-0.4c0.03-0.12,0.07-0.24,0.1-0.35
		l1.42-4.33c0.03-0.08,0.08-0.15,0.16-0.21c0.08-0.06,0.17-0.09,0.29-0.09h0.4c0.12,0,0.21,0.03,0.29,0.08
		c0.08,0.05,0.13,0.13,0.16,0.22l1.41,4.33c0.07,0.21,0.14,0.45,0.19,0.71c0.02-0.13,0.05-0.26,0.07-0.38
		c0.03-0.12,0.05-0.23,0.08-0.33l1.23-4.33c0.02-0.08,0.08-0.15,0.16-0.21c0.08-0.06,0.18-0.09,0.29-0.09h1.05l-2.25,7.23h-1.21
		l-1.58-4.94c-0.02-0.06-0.04-0.13-0.06-0.21c-0.02-0.07-0.04-0.15-0.06-0.23c-0.02,0.08-0.04,0.16-0.06,0.23
		c-0.02,0.07-0.04,0.14-0.06,0.21l-1.59,4.94h-1.21L58.14,201.32z"/>
	<path class="st8" d="M70.33,201.33c0.04,0.01,0.08,0.02,0.11,0.03s0.06,0.04,0.09,0.07c0.03,0.03,0.06,0.07,0.1,0.11l3.79,4.83
		c-0.01-0.12-0.02-0.23-0.03-0.34c-0.01-0.11-0.01-0.22-0.01-0.31v-4.4h1.19v7.23h-0.69c-0.11,0-0.2-0.02-0.27-0.05
		c-0.07-0.03-0.14-0.09-0.21-0.18l-3.78-4.82c0.01,0.11,0.02,0.21,0.02,0.32s0.01,0.2,0.01,0.29v4.44h-1.19v-7.23h0.71
		C70.24,201.32,70.29,201.32,70.33,201.33z"/>
	<path class="st8" d="M81.8,201.32v1.07h-3.21v2.01h2.52v1.04h-2.52v2.05h3.21v1.07h-4.56v-7.23H81.8z"/>
	<path class="st8" d="M84.55,205.72v2.82h-1.35v-7.23h2.21c0.49,0,0.92,0.05,1.27,0.15s0.64,0.24,0.87,0.43
		c0.22,0.18,0.39,0.4,0.5,0.66c0.1,0.26,0.16,0.54,0.16,0.84c0,0.24-0.04,0.47-0.11,0.69s-0.17,0.41-0.31,0.59
		c-0.14,0.18-0.3,0.33-0.5,0.46c-0.2,0.13-0.42,0.24-0.68,0.32c0.17,0.1,0.32,0.23,0.44,0.41l1.81,2.67h-1.21
		c-0.12,0-0.22-0.02-0.3-0.07c-0.08-0.05-0.15-0.11-0.21-0.2l-1.52-2.31c-0.06-0.09-0.12-0.15-0.19-0.19
		c-0.07-0.04-0.17-0.05-0.3-0.05H84.55z M84.55,204.76h0.84c0.25,0,0.47-0.03,0.66-0.09c0.19-0.06,0.34-0.15,0.46-0.26
		c0.12-0.11,0.21-0.24,0.27-0.4c0.06-0.15,0.09-0.32,0.09-0.51c0-0.37-0.12-0.65-0.36-0.84c-0.24-0.2-0.61-0.29-1.11-0.29h-0.86
		V204.76z"/>
</g>
<g>
	<path class="st8" d="M321.04,42.86v1.07h-3.21v2.01h2.53v1.04h-2.53v2.05h3.21v1.07h-4.56v-7.23H321.04z"/>
	<path class="st8" d="M323.26,42.86c0.04,0.01,0.08,0.02,0.11,0.03c0.03,0.02,0.06,0.04,0.09,0.07c0.03,0.03,0.06,0.07,0.1,0.11
		l3.79,4.83c-0.01-0.12-0.02-0.23-0.03-0.34s-0.01-0.22-0.01-0.31v-4.4h1.19v7.23h-0.7c-0.11,0-0.19-0.02-0.26-0.05
		c-0.07-0.03-0.14-0.09-0.21-0.18l-3.78-4.82c0.01,0.11,0.02,0.21,0.02,0.32c0.01,0.1,0.01,0.2,0.01,0.29v4.44h-1.19v-7.23h0.71
		C323.17,42.86,323.22,42.86,323.26,42.86z"/>
	<path class="st8" d="M336.58,46.47c0,0.53-0.09,1.02-0.27,1.46c-0.18,0.44-0.43,0.83-0.75,1.15c-0.32,0.32-0.7,0.57-1.15,0.74
		c-0.45,0.18-0.95,0.27-1.5,0.27h-2.76v-7.23h2.76c0.55,0,1.04,0.09,1.5,0.27c0.45,0.18,0.83,0.43,1.15,0.74
		c0.32,0.32,0.57,0.7,0.75,1.14C336.5,45.45,336.58,45.94,336.58,46.47z M335.21,46.47c0-0.4-0.05-0.75-0.16-1.07
		c-0.11-0.32-0.26-0.58-0.46-0.8c-0.2-0.22-0.44-0.39-0.72-0.5c-0.28-0.12-0.6-0.18-0.95-0.18h-1.41v5.09h1.41
		c0.35,0,0.67-0.06,0.95-0.18c0.28-0.12,0.52-0.28,0.72-0.5c0.2-0.22,0.35-0.48,0.46-0.8C335.16,47.22,335.21,46.87,335.21,46.47z"
		/>
	<path class="st8" d="M337.61,46.55h2.59v1.03h-2.59V46.55z"/>
	<path class="st8" d="M346.6,48.38c0.07,0,0.14,0.03,0.19,0.08l0.53,0.57c-0.29,0.36-0.65,0.64-1.08,0.84
		c-0.43,0.19-0.94,0.29-1.54,0.29c-0.54,0-1.02-0.09-1.45-0.27c-0.43-0.18-0.79-0.44-1.1-0.77s-0.54-0.72-0.7-1.17
		c-0.16-0.45-0.24-0.95-0.24-1.48c0-0.54,0.09-1.04,0.27-1.49c0.18-0.45,0.43-0.84,0.76-1.17c0.33-0.33,0.72-0.58,1.17-0.76
		c0.46-0.18,0.96-0.27,1.51-0.27c0.54,0,1.01,0.09,1.41,0.26c0.4,0.17,0.75,0.4,1.03,0.68l-0.45,0.62c-0.03,0.04-0.06,0.07-0.1,0.1
		c-0.04,0.03-0.1,0.05-0.17,0.05c-0.08,0-0.15-0.03-0.23-0.09c-0.08-0.06-0.18-0.12-0.31-0.19c-0.12-0.07-0.28-0.14-0.47-0.19
		c-0.19-0.06-0.43-0.09-0.72-0.09c-0.34,0-0.65,0.06-0.94,0.18c-0.29,0.12-0.53,0.29-0.74,0.51s-0.37,0.49-0.48,0.8
		c-0.11,0.31-0.17,0.67-0.17,1.06c0,0.41,0.06,0.77,0.17,1.08c0.11,0.32,0.27,0.58,0.47,0.8c0.2,0.22,0.43,0.38,0.7,0.5
		s0.55,0.17,0.86,0.17c0.18,0,0.35-0.01,0.5-0.03s0.29-0.05,0.41-0.1c0.12-0.04,0.24-0.1,0.35-0.17c0.11-0.07,0.22-0.15,0.33-0.25
		c0.03-0.03,0.07-0.05,0.1-0.07S346.56,48.38,346.6,48.38z"/>
	<path class="st8" d="M351.44,49c0.26,0,0.49-0.04,0.7-0.13c0.21-0.09,0.38-0.21,0.52-0.36c0.14-0.16,0.25-0.35,0.33-0.57
		c0.08-0.22,0.11-0.47,0.11-0.75v-4.33h1.34v4.33c0,0.43-0.07,0.83-0.21,1.19c-0.14,0.36-0.34,0.68-0.6,0.95
		c-0.26,0.26-0.58,0.47-0.95,0.62c-0.37,0.15-0.79,0.22-1.25,0.22c-0.46,0-0.88-0.07-1.25-0.22c-0.37-0.15-0.68-0.36-0.94-0.62
		c-0.26-0.27-0.46-0.58-0.59-0.95c-0.14-0.36-0.21-0.76-0.21-1.19v-4.33h1.35v4.32c0,0.28,0.04,0.53,0.11,0.75
		c0.08,0.22,0.18,0.41,0.32,0.57c0.14,0.16,0.31,0.28,0.52,0.37S351.18,49,351.44,49z"/>
	<path class="st8" d="M359.89,44.17c-0.04,0.07-0.08,0.12-0.13,0.16s-0.11,0.05-0.17,0.05c-0.07,0-0.14-0.03-0.23-0.08
		c-0.08-0.05-0.18-0.11-0.3-0.17s-0.25-0.12-0.4-0.17c-0.15-0.05-0.33-0.08-0.54-0.08c-0.19,0-0.35,0.02-0.49,0.07
		c-0.14,0.04-0.26,0.11-0.35,0.19c-0.09,0.08-0.17,0.18-0.21,0.29c-0.05,0.11-0.07,0.23-0.07,0.37c0,0.17,0.05,0.31,0.14,0.43
		c0.09,0.11,0.22,0.21,0.38,0.29c0.16,0.08,0.33,0.15,0.53,0.21c0.2,0.06,0.4,0.13,0.61,0.2s0.41,0.16,0.61,0.25
		c0.2,0.09,0.38,0.21,0.53,0.36s0.28,0.32,0.38,0.53c0.1,0.21,0.14,0.47,0.14,0.77c0,0.33-0.06,0.63-0.17,0.92
		c-0.11,0.29-0.27,0.53-0.49,0.74c-0.22,0.21-0.48,0.38-0.79,0.5c-0.31,0.12-0.67,0.18-1.06,0.18c-0.23,0-0.46-0.02-0.68-0.07
		c-0.22-0.04-0.44-0.11-0.64-0.19c-0.2-0.08-0.4-0.18-0.57-0.3c-0.18-0.12-0.34-0.25-0.48-0.39l0.39-0.65
		c0.04-0.05,0.08-0.09,0.13-0.12c0.05-0.03,0.11-0.05,0.17-0.05c0.08,0,0.17,0.03,0.27,0.1c0.1,0.07,0.21,0.14,0.34,0.23
		c0.13,0.08,0.29,0.16,0.46,0.23c0.18,0.07,0.39,0.1,0.64,0.1c0.38,0,0.68-0.09,0.89-0.27s0.32-0.44,0.32-0.78
		c0-0.19-0.05-0.35-0.14-0.47c-0.1-0.12-0.22-0.22-0.38-0.3c-0.16-0.08-0.33-0.15-0.53-0.21c-0.2-0.06-0.4-0.12-0.61-0.18
		c-0.21-0.07-0.41-0.15-0.61-0.24c-0.2-0.09-0.38-0.21-0.54-0.36c-0.16-0.15-0.28-0.34-0.38-0.56c-0.1-0.22-0.14-0.5-0.14-0.83
		c0-0.26,0.05-0.52,0.16-0.77s0.26-0.47,0.46-0.67c0.2-0.19,0.45-0.35,0.74-0.46c0.29-0.12,0.63-0.18,1-0.18
		c0.43,0,0.82,0.07,1.18,0.2c0.36,0.13,0.67,0.32,0.92,0.56L359.89,44.17z"/>
	<path class="st8" d="M366.67,42.86v1.1h-2.18v6.12h-1.35v-6.12h-2.18v-1.1H366.67z"/>
	<path class="st8" d="M374.27,46.47c0,0.53-0.09,1.02-0.27,1.47s-0.42,0.84-0.75,1.17c-0.32,0.33-0.71,0.59-1.15,0.77
		c-0.45,0.19-0.95,0.28-1.5,0.28c-0.55,0-1.05-0.09-1.5-0.28c-0.45-0.18-0.84-0.44-1.16-0.77c-0.32-0.33-0.57-0.72-0.75-1.17
		s-0.27-0.94-0.27-1.47s0.09-1.02,0.27-1.47c0.18-0.45,0.43-0.84,0.75-1.17c0.32-0.33,0.71-0.59,1.16-0.77
		c0.45-0.19,0.95-0.28,1.5-0.28c0.55,0,1.05,0.09,1.5,0.28c0.45,0.19,0.83,0.44,1.15,0.77c0.32,0.33,0.57,0.72,0.75,1.17
		C374.19,45.45,374.27,45.94,374.27,46.47z M372.89,46.47c0-0.4-0.05-0.75-0.16-1.07c-0.1-0.32-0.26-0.58-0.45-0.8
		c-0.2-0.22-0.44-0.39-0.72-0.51s-0.6-0.18-0.95-0.18c-0.35,0-0.67,0.06-0.95,0.18c-0.28,0.12-0.52,0.29-0.72,0.51
		s-0.35,0.49-0.46,0.8c-0.11,0.31-0.16,0.67-0.16,1.07c0,0.4,0.05,0.75,0.16,1.07c0.11,0.31,0.26,0.58,0.46,0.8
		c0.2,0.22,0.44,0.39,0.72,0.5c0.28,0.12,0.6,0.18,0.95,0.18c0.35,0,0.67-0.06,0.95-0.18s0.52-0.28,0.72-0.5
		c0.2-0.22,0.35-0.48,0.45-0.8C372.84,47.22,372.89,46.87,372.89,46.47z"/>
	<path class="st8" d="M379.32,47.42c0.05,0.11,0.1,0.23,0.14,0.35c0.05-0.12,0.09-0.24,0.15-0.36c0.05-0.12,0.1-0.23,0.16-0.33
		l2.14-4.01c0.03-0.05,0.05-0.09,0.08-0.12s0.06-0.05,0.1-0.06s0.07-0.02,0.12-0.03c0.04,0,0.09-0.01,0.15-0.01h1.02v7.23h-1.19
		v-4.67c0-0.09,0-0.18,0.01-0.28s0.01-0.21,0.02-0.32l-2.18,4.1c-0.05,0.09-0.12,0.17-0.2,0.22c-0.08,0.05-0.17,0.08-0.28,0.08
		h-0.18c-0.11,0-0.2-0.03-0.28-0.08c-0.08-0.05-0.14-0.12-0.19-0.22l-2.22-4.11c0.01,0.11,0.02,0.22,0.03,0.32
		c0.01,0.1,0.01,0.2,0.01,0.29v4.67h-1.18v-7.23h1.01c0.06,0,0.11,0,0.16,0.01c0.04,0,0.08,0.01,0.12,0.03s0.07,0.03,0.1,0.06
		s0.06,0.07,0.08,0.12l2.16,4.02C379.22,47.19,379.27,47.3,379.32,47.42z"/>
	<path class="st8" d="M389.59,42.86v1.07h-3.21v2.01h2.53v1.04h-2.53v2.05h3.21v1.07h-4.56v-7.23H389.59z"/>
	<path class="st8" d="M392.35,47.26v2.82H391v-7.23h2.21c0.49,0,0.92,0.05,1.27,0.15c0.35,0.1,0.64,0.24,0.86,0.43
		c0.23,0.18,0.39,0.4,0.5,0.66s0.16,0.54,0.16,0.84c0,0.24-0.04,0.47-0.11,0.69c-0.07,0.22-0.17,0.41-0.31,0.59
		c-0.14,0.18-0.3,0.33-0.5,0.46c-0.2,0.13-0.42,0.24-0.68,0.32c0.17,0.1,0.32,0.23,0.44,0.41l1.81,2.67h-1.21
		c-0.12,0-0.22-0.02-0.3-0.07c-0.08-0.05-0.15-0.11-0.21-0.2l-1.52-2.31c-0.06-0.09-0.12-0.15-0.19-0.19
		c-0.07-0.04-0.17-0.05-0.3-0.05H392.35z M392.35,46.3h0.84c0.25,0,0.47-0.03,0.66-0.09c0.19-0.06,0.34-0.15,0.46-0.26
		s0.21-0.24,0.27-0.4c0.06-0.15,0.09-0.32,0.09-0.51c0-0.37-0.12-0.65-0.36-0.84c-0.24-0.2-0.61-0.29-1.11-0.29h-0.86V46.3z"/>
</g>
<g>
	<defs>
		<circle id="SVGID_7_" cx="352.93" cy="102.15" r="45.04"/>
	</defs>
	<clipPath id="SVGID_4_">
		<use xlink:href="#SVGID_7_"  style="overflow:visible;"/>
	</clipPath>
	<g class="st19">
		<g>
			<path class="st8" d="M335.54,93.62c-4.33,5.15-11.17,7.31-15.51,12.36c-4.04,4.65-4.33,12.01-0.58,16.86
				c1.99,2.57,4.87,4.33,7.79,5.85c5.08,2.64,10.54,4.73,16.31,5.18c9.64,0.76,19.43-3.38,25.95-10.35
				c3.52-3.89,6.29-8.37,8.18-13.22c1.97-4.86,1.36-10.52,0.89-15.58c-0.42-5.47-1.59-10.87-3.49-16.04
				c-1.01-2.63-2.88-6.43-5.69-7.61c-1.03-0.44-2.12-0.7-3.24-0.79c-0.35,0-0.7-0.07-1.02-0.2c-1.52-0.75-2.15-2.32-3.94-2.81
				c-1.78-0.47-3.6-0.74-5.44-0.81c-4.52-0.2-8.81,1.94-11.29,5.62c-0.13,0.2-0.26,0.4-0.39,0.61
				C340.14,79.03,340.31,87.9,335.54,93.62z"/>
			<path class="st8" d="M343.51,134.26c-5.08-0.4-10.45-2.11-16.44-5.22c-2.71-1.44-5.81-3.23-7.9-5.94
				c-3.81-4.92-3.55-12.49,0.58-17.28c2.17-2.52,4.93-4.32,7.7-6.12s5.64-3.67,7.8-6.26c2.58-3.11,3.74-7.24,4.85-11.24
				c0.93-3.33,1.89-6.78,3.69-9.68l0,0c0.13-0.2,0.25-0.41,0.39-0.61c2.57-3.77,6.97-5.95,11.6-5.75c1.87,0.08,3.72,0.35,5.52,0.83
				c0.96,0.31,1.81,0.87,2.46,1.62c0.44,0.49,0.97,0.9,1.55,1.22c0.25,0.1,0.52,0.15,0.79,0.15h0.09c1.16,0.09,2.29,0.37,3.35,0.81
				c2.84,1.2,4.76,4.91,5.88,7.81c1.91,5.2,3.09,10.62,3.5,16.12l0.05,0.56c0.46,4.88,0.97,10.41-0.96,15.17
				c-1.89,4.89-4.69,9.4-8.24,13.32c-6.19,6.61-15.21,10.54-23.98,10.54C345.02,134.32,344.26,134.29,343.51,134.26z M344.76,72.3
				c-0.13,0.2-0.26,0.39-0.38,0.6l0,0c-1.74,2.82-2.69,6.22-3.61,9.51c-1.13,4.06-2.31,8.26-4.98,11.45
				c-2.23,2.67-5.14,4.56-7.95,6.39c-2.68,1.75-5.46,3.56-7.56,6c-3.94,4.56-4.19,11.79-0.58,16.45c2.02,2.6,5.01,4.37,7.68,5.75
				c5.88,3.07,11.17,4.75,16.15,5.14c9.26,0.72,19.1-3.2,25.69-10.24c3.5-3.85,6.25-8.3,8.11-13.11c1.87-4.62,1.36-10.07,0.92-14.88
				l-0.05-0.56c-0.41-5.44-1.57-10.81-3.46-15.95c-1.04-2.81-2.88-6.35-5.47-7.46c-0.99-0.42-2.05-0.68-3.13-0.76h-0.1
				c-0.36-0.01-0.72-0.08-1.05-0.22c-0.65-0.35-1.23-0.81-1.73-1.34c-0.57-0.66-1.32-1.16-2.16-1.45c-1.75-0.47-3.55-0.74-5.36-0.82
				h-0.46C351.05,66.78,347.09,68.85,344.76,72.3z"/>
			<path class="st6" d="M322.68,181.04c1.03-9.05,5.35-35.6,6.17-49.71c0.58-9.95,8.09-17.6,10.76-22.15
				c4.91-8.38,31.73-8.79,41.48,0.48c8.55,8.13,1.12,59-0.84,71.36L322.68,181.04z"/>
			<polygon class="st8" points="341.08,181.03 349.36,110.74 364.59,109.17 358.6,181.03 			"/>
			<path class="st8" d="M340.8,181.25c-0.06-0.07-0.09-0.17-0.08-0.26l8.31-70.28c0.02-0.15,0.15-0.28,0.31-0.29l15.23-1.57
				c0.02,0,0.05,0,0.07,0c0.18,0.02,0.32,0.18,0.3,0.36l-6,71.85c-0.02,0.17-0.16,0.3-0.34,0.3h-17.52
				C340.97,181.37,340.87,181.33,340.8,181.25z M364.22,109.52l-14.55,1.5l-8.21,69.68h16.83L364.22,109.52z"/>
			<path class="st1" d="M343.81,94.97c0-2.77,0.25-5.55,0.42-8.32c0.1-1.53-0.12-3.52,0.32-4.99c0.37-1.21-0.07-0.94,1.37-1.21
				c1.34-0.25,3.04,0.04,4.41,0.04c1.39,0.1,2.78-0.07,4.1-0.5c1.56-0.63,2.69-1.95,3.76-3.22c-0.33,2.86,1.04,5.66,3.54,7.22
				c0.81,0.5,1.75,0.83,2.54,1.39c2.87,1.96,1.26,7.98,1.1,10.91c-0.24,4.29-0.52,8.59-0.77,12.88c0,0-2.11,5.61-8.45,5.11
				c-3.9-0.3-6.78-3.54-6.78-3.54l0.87-9.28C350.23,101.46,344.07,99.84,343.81,94.97z"/>
			<g>
				<path class="st1" d="M356.12,114.61c-3.98-0.31-6.89-3.52-7.01-3.65c-0.06-0.07-0.09-0.16-0.08-0.25l0.85-8.99
					c-1.22-0.4-6.15-2.25-6.41-6.74c0-2.13,0.15-4.29,0.29-6.38c0.05-0.65,0.09-1.3,0.13-1.96c0-0.48,0-0.99,0-1.55
					c-0.07-1.18,0.04-2.37,0.31-3.52c0.07-0.24,0.12-0.43,0.14-0.56c0.13-0.58,0.27-0.66,0.96-0.78l0.52-0.09
					c1.02-0.14,2.05-0.15,3.07-0.03c0.5,0.03,0.96,0.07,1.4,0.07c1.34,0.09,2.69-0.07,3.97-0.48c1.51-0.61,2.64-1.94,3.62-3.12
					c0.1-0.12,0.26-0.16,0.4-0.1c0.14,0.06,0.22,0.2,0.2,0.35c-0.3,2.73,1.01,5.39,3.37,6.88c0.35,0.19,0.73,0.38,1.1,0.56
					c0.51,0.24,1,0.51,1.46,0.81c2.44,1.67,1.89,5.93,1.48,9.04c-0.1,0.8-0.23,1.56-0.23,2.16c-0.14,2.36-0.28,4.72-0.42,7.07
					c-0.12,1.94-0.24,3.87-0.35,5.81c0.01,0.03,0.01,0.06,0,0.1c-0.02,0.06-2.06,5.36-7.99,5.36
					C356.66,114.64,356.39,114.63,356.12,114.61z M364.6,103.34c0.15-2.36,0.29-4.72,0.42-7.07c0.03-0.63,0.13-1.4,0.24-2.21
					c0.38-2.96,0.91-6.99-1.19-8.43c-0.44-0.29-0.91-0.54-1.38-0.77c-0.39-0.19-0.78-0.38-1.15-0.61c-2.28-1.43-3.68-3.87-3.74-6.51
					c-0.85,1.11-1.96,2-3.24,2.61c-1.36,0.45-2.8,0.63-4.24,0.52c-0.46-0.01-0.93-0.04-1.44-0.07c-0.96-0.12-1.93-0.12-2.88,0
					l-0.54,0.09c-0.12,0.03-0.23,0.04-0.35,0.04c-0.02,0.07-0.04,0.14-0.05,0.21c-0.04,0.21-0.1,0.43-0.16,0.63
					c-0.25,1.09-0.34,2.21-0.28,3.33c0,0.56,0.01,1.09-0.03,1.59c-0.04,0.65-0.08,1.3-0.13,1.96c-0.14,2.08-0.29,4.23-0.29,6.31
					c0.25,4.56,6.12,6.18,6.18,6.18c0.16,0.04,0.27,0.19,0.25,0.35l-0.87,9.13c0.53,0.52,3.14,3.07,6.46,3.33
					c5.77,0.44,7.86-4.29,8.07-4.85C364.37,107.18,364.48,105.26,364.6,103.34z"/>
			</g>
			<path class="st1" d="M361.35,95.67c0.02,0.01,0.03,0.02,0.05,0.03c2.45,1.32,5.52,0.45,6.87-1.93c1.06-1.89,1.4-4.94-1.32-5.62
				c-2.11-0.51-4.75,0.89-5.47,2.87"/>
			<path class="st1" d="M361.18,95.95C361.18,95.95,361.17,95.95,361.18,95.95c-0.17-0.09-0.22-0.3-0.13-0.46
				c0,0,0.01-0.01,0.01-0.01c0.1-0.15,0.3-0.2,0.46-0.11c0.02,0.01,0.04,0.02,0.06,0.03c2.28,1.22,5.15,0.41,6.4-1.81
				c0.62-1.09,1.02-2.73,0.51-3.85c-0.3-0.65-0.9-1.12-1.61-1.26c-2.12-0.37-4.22,0.73-5.06,2.66l0,0c-0.06,0.17-0.26,0.26-0.44,0.2
				c-0.18-0.06-0.27-0.25-0.21-0.43c0.78-2.14,3.64-3.64,5.88-3.07c0.92,0.19,1.69,0.8,2.08,1.64c0.62,1.44,0.11,3.32-0.54,4.44
				c-0.95,1.68-2.76,2.72-4.72,2.72C362.92,96.63,361.99,96.4,361.18,95.95z"/>
			<path class="st1" d="M350.73,91.31c0,0-2.28,0.25-2.95-0.69s3.32-5.32,3.32-5.32"/>
			<path class="st8" d="M347.47,90.79c-0.74-1.05,2.09-4.36,3.35-5.74c0.02-0.02,0.04-0.05,0.06-0.06c0.14-0.12,0.36-0.11,0.49,0.03
				s0.11,0.35-0.03,0.48c-2,2.19-3.56,4.53-3.29,4.92c0.45,0.65,2.09,0.62,2.63,0.56c0.01,0,0.01,0,0.02,0
				c0.18-0.02,0.35,0.11,0.36,0.29c0.02,0.18-0.11,0.35-0.3,0.37c-0.08,0.03-0.37,0.03-0.75,0.03
				C349.19,91.68,347.99,91.55,347.47,90.79z"/>
			<path class="st1" d="M349.76,106.48c6.37-0.01,8.6-6.39,8.6-6.39c-4.58,2.35-8.14,1.37-8.14,1.37L349.76,106.48z"/>
			<g>
				<path class="st1" d="M349.73,106.81c-0.19-0.02-0.32-0.18-0.3-0.36l0.47-5.02c0.01-0.1,0.06-0.19,0.15-0.25
					c0.08-0.06,0.19-0.07,0.29-0.04c0.03,0.01,3.48,0.9,7.88-1.34c0.12-0.06,0.28-0.04,0.38,0.04c0.11,0.09,0.15,0.23,0.1,0.36
					c-0.02,0.07-2.39,6.61-8.93,6.61l0,0C349.75,106.82,349.74,106.81,349.73,106.81z M350.54,101.85l-0.4,4.28
					c4.45-0.2,6.72-3.73,7.54-5.35C355.46,101.82,352.97,102.2,350.54,101.85z"/>
			</g>
			<ellipse class="st8" cx="356.17" cy="86.15" rx="0.66" ry="1.47"/>
			
				<ellipse transform="matrix(0.0584 -0.9983 0.9983 0.0584 242.0146 427.1715)" class="st8" cx="347.45" cy="85.29" rx="1.47" ry="0.66"/>
			<path class="st6" d="M324.02,173.47C324.02,173.47,324.02,173.47,324.02,173.47c-0.19-0.03-0.31-0.2-0.28-0.38l8.33-50.98l0,0
				c0.03-0.18,0.2-0.31,0.39-0.28c0.19,0.03,0.31,0.2,0.28,0.38l-8.36,50.98c-0.03,0.16-0.17,0.28-0.33,0.28L324.02,173.47z"/>
			<path class="st6" d="M378.87,151.68c0,0-0.01,0-0.01,0c-0.18-0.01-0.33-0.16-0.32-0.34c0.08-7.88-2.18-27.8-2.18-28
				c-0.02-0.18,0.11-0.34,0.3-0.37c0.19-0.02,0.35,0.11,0.38,0.29c0.02,0.22,2.27,20.17,2.18,28.1c0,0.18-0.15,0.33-0.34,0.33
				L378.87,151.68z"/>
			<path class="st12" d="M353.77,92.71l-5.15,0.81c0,0,0.45,4.28,4.24,4.72C352.86,98.24,355.28,97.28,353.77,92.71z"/>
			<path class="st8" d="M349.11,94.01c0.24,1.25,0.91,2.37,1.9,3.2c0.5,0.38,1.14,0.54,1.76,0.43c0.32-0.05,0.6-0.24,0.77-0.51
				c0.63-0.97,0.33-3.02,0.1-4.04L349.11,94.01z M350.59,97.73c-1.21-1-2.01-2.4-2.23-3.93c-0.02-0.17,0.1-0.33,0.27-0.37l5.19-1.05
				c0.18-0.04,0.36,0.06,0.4,0.24c0.03,0.14,0.89,3.34-0.11,4.88c-0.27,0.43-0.71,0.73-1.22,0.81c-0.17,0.03-0.35,0.04-0.52,0.04
				C351.72,98.33,351.1,98.12,350.59,97.73z"/>
			<path class="st6" d="M339.58,109.17l5.19,31.77c0,0-22.75,13.22-33.35,15.1c-10.6,1.88-28.71-35.01-28.92-36.56l11.53-9.41
				c0,0,19.82,21.15,22.31,22.36C318.85,133.65,339.58,109.17,339.58,109.17z"/>
			<path class="st6" d="M377.31,152.69l-26.21,3.43l-1.36,14.18c0,0,32.64,2.43,43.13-3.84c10.49-6.28-10.16-54.12-10.38-54.69
				L377.31,152.69z"/>
		</g>
		<g>
			
				<ellipse transform="matrix(0.6976 -0.7165 0.7165 0.6976 13.0486 292.3145)" class="st7" cx="352.83" cy="130.7" rx="8.94" ry="33.53"/>
			<path class="st12" d="M357.48,125.52c0,0-6.04,4.3-7.08,13.07C350.4,138.6,356.06,134.99,357.48,125.52z"/>
			<path class="st12" d="M363.81,132.8c0,0-4.76,3.39-5.59,10.31C358.22,143.11,362.69,140.27,363.81,132.8z"/>
			<path class="st12" d="M369.99,141.3c0,0-3.34,2.38-3.92,7.24C366.06,148.55,369.2,146.55,369.99,141.3z"/>
			<path class="st12" d="M342.15,114.26c0,0-3.34,2.38-3.92,7.24C338.23,121.5,341.36,119.5,342.15,114.26z"/>
			<path class="st12" d="M350.1,119.48c0,0-4.76,3.39-5.59,10.31C344.51,129.79,348.98,126.95,350.1,119.48z"/>
		</g>
	</g>
</g>
<g>
	<polygon class="st5" points="336.06,246.5 330.36,250.56 313.04,250.56 313.04,206.74 336.06,206.74 	"/>
	<rect x="295.72" y="206.74" class="st3" width="34.64" height="43.82"/>
	<rect x="292.28" y="201.58" class="st1" width="46.25" height="5.51"/>
	<g>
		<path class="st1" d="M303.08,244.85c-0.86,0-1.7-0.48-2.32-1.33c-0.55-0.76-0.55-1.61-0.54-2.42l0-0.24v-9.21h0.93l0,3.07l0,6.39
			c0,0.72-0.01,1.35,0.36,1.87c0.45,0.62,1.03,0.97,1.61,0.95c0.53-0.02,1.03-0.36,1.4-0.95c0.39-0.63,0.38-1.53,0.37-2.33
			c0-0.12,0-0.24,0-0.36v-5.72c0-1.39,0.49-2.48,1.35-3c1.02-0.62,2.42-0.41,3.26,0.47c0.89,0.94,0.88,2.17,0.88,3.25l0,0.25v6.55
			h-0.93l0-6.81c0.01-1,0.01-1.94-0.62-2.61c-0.54-0.57-1.46-0.71-2.1-0.32c-0.82,0.49-0.9,1.71-0.9,2.21v5.72c0,0.11,0,0.23,0,0.35
			c0.01,0.92,0.02,1.97-0.51,2.83c-0.54,0.87-1.3,1.37-2.16,1.4C303.13,244.85,303.11,244.85,303.08,244.85z"/>
		<path class="st1" d="M318.91,244.85c-0.86,0-1.7-0.48-2.32-1.33c-0.55-0.77-0.55-1.61-0.54-2.42l0-0.24v-6.78h0.93l0,7.03
			c0,0.72-0.01,1.35,0.36,1.87c0.45,0.62,1.05,0.97,1.61,0.95c0.53-0.02,1.03-0.36,1.4-0.95c0.39-0.63,0.38-1.53,0.37-2.33
			c0-0.12,0-0.24,0-0.36v-5.72c0-1.39,0.49-2.48,1.35-3c1.02-0.62,2.42-0.41,3.26,0.47c0.89,0.94,0.88,2.17,0.88,3.25l0,0.25v8.65
			h-0.93l0-8.91c0.01-1,0.01-1.94-0.62-2.61c-0.54-0.57-1.46-0.71-2.1-0.32c-0.82,0.49-0.9,1.71-0.9,2.21v5.72c0,0.11,0,0.23,0,0.35
			c0.01,0.92,0.02,1.97-0.51,2.83c-0.54,0.87-1.3,1.37-2.16,1.4C318.96,244.85,318.94,244.85,318.91,244.85z"/>
		<rect x="302.56" y="234.08" class="st1" width="0.93" height="8"/>
		<path class="st1" d="M311.18,245.02c-1.56,0-2.98-0.87-3.55-2.18c-0.22-0.51-0.36-1.08-0.42-1.79c-0.06-0.67-0.05-1.49-0.05-2.16
			c0-0.18,0-0.36,0-0.52l0-4.3h0.93l0,4.3c0,0.16,0,0.34,0,0.52c-0.01,0.64-0.01,1.45,0.04,2.06c0.06,0.6,0.17,1.08,0.35,1.5
			c0.43,0.99,1.54,1.64,2.76,1.61c0.92-0.02,1.73-0.71,2.13-1.39c0.45-0.77,0.45-1.49,0.44-2.41l0-6.21h0.93l0,6.2
			c0.01,0.98,0.01,1.9-0.57,2.89c-0.65,1.1-1.79,1.82-2.91,1.84C311.24,245.01,311.21,245.02,311.18,245.02z"/>
		<path class="st1" d="M319.22,242.08h-0.93l0-4.44c0-0.16,0-0.34,0-0.53c0.01-0.64,0.01-1.44-0.04-2.06
			c-0.06-0.6-0.17-1.08-0.35-1.5c-0.41-0.94-1.38-1.46-2.64-1.44c-0.92,0.02-1.85,0.52-2.26,1.21c-0.45,0.77-0.45,1.49-0.44,2.41
			l0,6.35h-0.93l0-6.34c-0.01-0.98-0.01-1.9,0.57-2.89c0.57-0.97,1.79-1.64,3.04-1.67c1.63-0.04,2.96,0.71,3.51,2
			c0.22,0.51,0.36,1.08,0.42,1.79c0.06,0.66,0.05,1.49,0.05,2.16c0,0.19,0,0.36,0,0.52L319.22,242.08z"/>
	</g>
	<polygon class="st1" points="310.48,226.27 304.86,220.65 306.27,219.24 310.42,223.39 320.81,212.16 322.28,213.52 	"/>
</g>
<polygon class="st1" points="276.32,139.54 268.15,130.48 269.64,129.14 276.3,136.54 282.86,129.14 284.36,130.47 "/>
<polygon class="st1" points="359.45,180.77 352.79,173.37 346.23,180.76 344.73,179.43 352.77,170.37 360.94,179.43 "/>
<polygon class="st1" points="57,78.59 50.33,71.19 43.77,78.58 42.28,77.25 50.32,68.19 58.48,77.25 "/>
<polygon class="st1" points="125.05,139.54 116.88,130.48 118.37,129.14 125.04,136.54 131.59,129.14 133.09,130.47 "/>
<polygon class="st1" points="208.51,84.26 201.84,76.86 195.28,84.25 193.79,82.93 201.83,73.86 209.99,82.92 "/>
<g>
	<path class="st8" d="M264.89,259.69h1.08c0.12,0,0.21,0.03,0.28,0.08c0.07,0.06,0.13,0.13,0.17,0.22l1.7,4.41
		c0.06,0.14,0.11,0.3,0.16,0.47c0.05,0.17,0.1,0.35,0.15,0.54c0.08-0.38,0.17-0.72,0.29-1.02l1.69-4.41
		c0.03-0.08,0.08-0.15,0.16-0.21c0.08-0.06,0.17-0.09,0.29-0.09h1.08l-2.92,7.23h-1.21L264.89,259.69z"/>
	<path class="st8" d="M277.46,259.69v1.07h-3.21v2.01h2.53v1.04h-2.53v2.05h3.21v1.07h-4.56v-7.23H277.46z"/>
	<path class="st8" d="M280.22,264.09v2.82h-1.34v-7.23h2.21c0.49,0,0.92,0.05,1.27,0.15c0.35,0.1,0.64,0.24,0.86,0.43
		c0.23,0.18,0.39,0.4,0.49,0.66c0.11,0.26,0.16,0.54,0.16,0.84c0,0.24-0.04,0.47-0.11,0.69s-0.18,0.41-0.31,0.59
		c-0.13,0.18-0.3,0.33-0.5,0.46c-0.2,0.13-0.42,0.24-0.68,0.32c0.17,0.1,0.32,0.23,0.44,0.41l1.81,2.67h-1.21
		c-0.12,0-0.22-0.02-0.3-0.07c-0.08-0.05-0.15-0.11-0.21-0.2l-1.52-2.31c-0.06-0.09-0.12-0.15-0.19-0.19
		c-0.07-0.04-0.17-0.05-0.3-0.05H280.22z M280.22,263.13h0.84c0.25,0,0.47-0.03,0.66-0.09c0.19-0.06,0.34-0.15,0.46-0.26
		c0.12-0.11,0.21-0.24,0.27-0.4c0.06-0.15,0.09-0.32,0.09-0.51c0-0.37-0.12-0.65-0.36-0.84c-0.24-0.2-0.61-0.29-1.11-0.29h-0.86
		V263.13z"/>
	<path class="st8" d="M287.09,266.92h-1.35v-7.23h1.35V266.92z"/>
	<path class="st8" d="M293.48,259.69v1.07h-3.21v2.14h2.71v1.08h-2.71v2.94h-1.35v-7.23H293.48z"/>
	<path class="st8" d="M296.25,266.92h-1.35v-7.23h1.35V266.92z"/>
	<path class="st8" d="M302.63,259.69v1.07h-3.21v2.01h2.53v1.04h-2.53v2.05h3.21v1.07h-4.56v-7.23H302.63z"/>
	<path class="st8" d="M310.42,263.3c0,0.53-0.09,1.02-0.27,1.46c-0.18,0.44-0.42,0.83-0.75,1.15c-0.32,0.32-0.7,0.57-1.15,0.74
		c-0.45,0.18-0.95,0.27-1.5,0.27H304v-7.23h2.76c0.55,0,1.04,0.09,1.5,0.27c0.45,0.18,0.83,0.43,1.15,0.74
		c0.32,0.32,0.57,0.7,0.75,1.14S310.42,262.77,310.42,263.3z M309.04,263.3c0-0.4-0.05-0.75-0.16-1.07
		c-0.11-0.32-0.26-0.58-0.46-0.8c-0.2-0.22-0.44-0.39-0.72-0.5c-0.28-0.12-0.6-0.18-0.95-0.18h-1.41v5.09h1.41
		c0.35,0,0.67-0.06,0.95-0.18c0.28-0.12,0.52-0.28,0.72-0.5c0.2-0.22,0.35-0.48,0.46-0.8C308.99,264.05,309.04,263.7,309.04,263.3z"
		/>
	<path class="st8" d="M315.19,264.37v2.55h-1.35v-7.23h2.35c0.48,0,0.9,0.06,1.26,0.17c0.35,0.11,0.64,0.27,0.88,0.48
		c0.23,0.2,0.4,0.45,0.51,0.73c0.11,0.28,0.17,0.59,0.17,0.93c0,0.35-0.06,0.67-0.17,0.96c-0.12,0.29-0.29,0.54-0.53,0.75
		c-0.23,0.21-0.52,0.37-0.88,0.49c-0.35,0.12-0.76,0.17-1.23,0.17H315.19z M315.19,263.32h1.01c0.25,0,0.46-0.03,0.65-0.09
		c0.18-0.06,0.33-0.15,0.46-0.27s0.21-0.26,0.27-0.42c0.06-0.16,0.09-0.35,0.09-0.55c0-0.19-0.03-0.37-0.09-0.52
		c-0.06-0.16-0.15-0.29-0.27-0.4s-0.27-0.19-0.46-0.25c-0.18-0.06-0.4-0.09-0.65-0.09h-1.01V263.32z"/>
	<path class="st8" d="M321.64,264.09v2.82h-1.34v-7.23h2.21c0.49,0,0.92,0.05,1.27,0.15c0.35,0.1,0.64,0.24,0.86,0.43
		c0.23,0.18,0.39,0.4,0.49,0.66c0.11,0.26,0.16,0.54,0.16,0.84c0,0.24-0.04,0.47-0.11,0.69s-0.18,0.41-0.31,0.59
		c-0.13,0.18-0.3,0.33-0.5,0.46c-0.2,0.13-0.42,0.24-0.68,0.32c0.17,0.1,0.32,0.23,0.44,0.41l1.81,2.67h-1.21
		c-0.12,0-0.22-0.02-0.3-0.07c-0.08-0.05-0.15-0.11-0.21-0.2l-1.52-2.31c-0.06-0.09-0.12-0.15-0.19-0.19
		c-0.07-0.04-0.17-0.05-0.3-0.05H321.64z M321.64,263.13h0.84c0.25,0,0.47-0.03,0.66-0.09c0.19-0.06,0.34-0.15,0.46-0.26
		c0.12-0.11,0.21-0.24,0.27-0.4c0.06-0.15,0.09-0.32,0.09-0.51c0-0.37-0.12-0.65-0.36-0.84c-0.24-0.2-0.61-0.29-1.11-0.29h-0.86
		V263.13z"/>
	<path class="st8" d="M333.7,263.3c0,0.53-0.09,1.02-0.27,1.47c-0.18,0.45-0.42,0.84-0.74,1.17c-0.32,0.33-0.71,0.59-1.15,0.77
		c-0.45,0.19-0.95,0.28-1.5,0.28s-1.05-0.09-1.5-0.28c-0.45-0.18-0.84-0.44-1.16-0.77c-0.32-0.33-0.57-0.72-0.75-1.17
		s-0.26-0.94-0.26-1.47s0.09-1.02,0.26-1.47c0.18-0.45,0.43-0.84,0.75-1.17s0.71-0.59,1.16-0.77c0.45-0.19,0.95-0.28,1.5-0.28
		s1.04,0.09,1.5,0.28c0.45,0.19,0.83,0.44,1.15,0.77c0.32,0.33,0.57,0.72,0.74,1.17C333.61,262.28,333.7,262.77,333.7,263.3z
		 M332.32,263.3c0-0.4-0.05-0.75-0.16-1.07c-0.1-0.32-0.26-0.58-0.45-0.8c-0.2-0.22-0.44-0.39-0.72-0.51
		c-0.28-0.12-0.6-0.18-0.95-0.18s-0.67,0.06-0.96,0.18s-0.52,0.29-0.72,0.51s-0.35,0.49-0.46,0.8c-0.11,0.31-0.16,0.67-0.16,1.07
		c0,0.4,0.05,0.75,0.16,1.07c0.11,0.31,0.26,0.58,0.46,0.8c0.2,0.22,0.44,0.39,0.72,0.5s0.6,0.18,0.96,0.18s0.67-0.06,0.95-0.18
		c0.28-0.12,0.52-0.28,0.72-0.5c0.2-0.22,0.35-0.48,0.45-0.8C332.27,264.05,332.32,263.7,332.32,263.3z"/>
	<path class="st8" d="M341.38,263.3c0,0.53-0.09,1.02-0.26,1.46c-0.18,0.44-0.43,0.83-0.75,1.15c-0.32,0.32-0.71,0.57-1.16,0.74
		c-0.45,0.18-0.95,0.27-1.5,0.27h-2.76v-7.23h2.76c0.55,0,1.04,0.09,1.5,0.27c0.45,0.18,0.83,0.43,1.16,0.74
		c0.32,0.32,0.57,0.7,0.75,1.14C341.29,262.28,341.38,262.77,341.38,263.3z M340,263.3c0-0.4-0.05-0.75-0.16-1.07
		c-0.11-0.32-0.26-0.58-0.46-0.8c-0.2-0.22-0.44-0.39-0.72-0.5s-0.6-0.18-0.95-0.18h-1.4v5.09h1.4c0.35,0,0.67-0.06,0.95-0.18
		s0.52-0.28,0.72-0.5c0.2-0.22,0.35-0.48,0.46-0.8C339.95,264.05,340,263.7,340,263.3z"/>
	<path class="st8" d="M345.54,265.83c0.26,0,0.49-0.04,0.7-0.13c0.21-0.09,0.38-0.21,0.52-0.36c0.14-0.16,0.25-0.35,0.33-0.57
		c0.08-0.22,0.11-0.47,0.11-0.75v-4.33h1.34v4.33c0,0.43-0.07,0.83-0.21,1.19c-0.14,0.36-0.34,0.68-0.6,0.95
		c-0.26,0.26-0.58,0.47-0.95,0.62c-0.37,0.15-0.79,0.22-1.25,0.22c-0.46,0-0.88-0.07-1.25-0.22c-0.37-0.15-0.68-0.36-0.94-0.62
		c-0.26-0.27-0.46-0.58-0.59-0.95c-0.14-0.36-0.21-0.76-0.21-1.19v-4.33h1.35v4.32c0,0.28,0.04,0.53,0.11,0.75
		c0.08,0.22,0.18,0.41,0.32,0.57c0.14,0.16,0.31,0.28,0.52,0.37S345.28,265.83,345.54,265.83z"/>
	<path class="st8" d="M355.08,265.21c0.07,0,0.14,0.03,0.19,0.08l0.53,0.57c-0.29,0.36-0.65,0.64-1.08,0.84
		c-0.43,0.19-0.94,0.29-1.54,0.29c-0.54,0-1.02-0.09-1.45-0.27c-0.43-0.18-0.79-0.44-1.1-0.77c-0.3-0.33-0.54-0.72-0.7-1.17
		c-0.16-0.45-0.24-0.95-0.24-1.48c0-0.54,0.09-1.04,0.27-1.49c0.18-0.45,0.43-0.84,0.76-1.17c0.33-0.33,0.72-0.58,1.17-0.76
		s0.96-0.27,1.51-0.27c0.54,0,1.01,0.09,1.41,0.26c0.4,0.17,0.75,0.4,1.03,0.68l-0.45,0.62c-0.03,0.04-0.06,0.07-0.1,0.1
		s-0.1,0.05-0.17,0.05c-0.08,0-0.16-0.03-0.24-0.09c-0.08-0.06-0.18-0.12-0.3-0.19c-0.12-0.07-0.28-0.14-0.47-0.19
		c-0.19-0.06-0.43-0.09-0.72-0.09c-0.34,0-0.65,0.06-0.94,0.18c-0.28,0.12-0.53,0.29-0.73,0.51s-0.37,0.49-0.48,0.8
		c-0.11,0.31-0.17,0.67-0.17,1.06c0,0.41,0.06,0.77,0.17,1.08c0.12,0.32,0.27,0.58,0.47,0.8s0.43,0.38,0.7,0.5
		c0.27,0.11,0.55,0.17,0.86,0.17c0.18,0,0.35-0.01,0.5-0.03s0.29-0.05,0.41-0.1c0.12-0.04,0.24-0.1,0.35-0.17
		c0.11-0.07,0.22-0.15,0.33-0.25c0.03-0.03,0.07-0.05,0.1-0.07C355,265.22,355.04,265.21,355.08,265.21z"/>
	<path class="st8" d="M362.11,259.69v1.1h-2.18v6.12h-1.35v-6.12h-2.18v-1.1H362.11z"/>
</g>
</svg>
